<?xml version="1.0" standalone="no"?>
<!DOCTYPE svg PUBLIC "-//W3C//DTD SVG 20010904//EN"
 "http://www.w3.org/TR/2001/REC-SVG-20010904/DTD/svg10.dtd">
<svg version="1.0" xmlns="http://www.w3.org/2000/svg"
 width="400.000000pt" height="400.000000pt" viewBox="0 0 400.000000 400.000000"
 preserveAspectRatio="xMidYMid meet">

<g transform="translate(0.000000,400.000000) scale(0.100000,-0.100000)"
fill="#000000" stroke="none">
<path d="M2818 3314 c-24 -10 -38 -23 -40 -37 -2 -18 -22 -29 -118 -61 -63
-21 -398 -135 -744 -252 l-628 -214 -152 0 c-124 0 -158 -4 -191 -19 -51 -23
-111 -89 -124 -138 -7 -25 -11 -263 -11 -698 0 -737 -3 -702 71 -772 71 -67 5
-63 1110 -63 764 0 1011 3 1043 12 52 16 121 84 136 135 8 27 10 237 8 714
l-3 676 -30 48 c-22 36 -45 57 -84 77 l-53 28 -707 1 -706 1 60 20 c510 174
979 337 1053 365 88 32 95 33 112 18 17 -15 21 -15 57 4 53 26 66 44 59 78
-10 44 -44 93 -63 92 -10 0 -35 -7 -55 -15z m-1199 -929 c142 -34 276 -140
339 -266 134 -274 4 -596 -284 -700 -84 -31 -244 -31 -328 0 -207 75 -336 258
-336 477 0 321 300 561 609 489z m1306 -20 c20 -19 25 -34 25 -74 0 -30 -6
-55 -14 -64 -12 -11 -68 -16 -268 -21 -139 -4 -305 -9 -368 -12 -143 -7 -143
-8 -133 100 5 66 9 79 27 86 12 5 175 9 364 9 l343 1 24 -25z m-570 -390 c50
-49 15 -135 -55 -135 -19 0 -40 9 -55 25 -16 15 -25 36 -25 55 0 19 9 40 25
55 15 16 36 25 55 25 19 0 40 -9 55 -25z m259 4 c55 -43 18 -139 -54 -139 -19
0 -40 9 -55 25 -73 72 28 178 109 114z m261 -4 c50 -49 15 -135 -55 -135 -41
0 -80 39 -80 80 0 41 39 80 80 80 19 0 40 -9 55 -25z m47 -332 c29 -26 24 -87
-8 -112 -26 -20 -38 -21 -353 -21 -352 0 -368 2 -385 53 -12 34 2 78 30 92 13
6 142 9 360 7 293 -3 341 -5 356 -19z"/>
<path d="M1450 2324 c-153 -29 -270 -118 -334 -253 -29 -62 -31 -73 -31 -177
0 -107 1 -112 38 -186 131 -265 463 -327 682 -126 159 146 180 395 47 569 -53
70 -116 118 -197 148 -55 21 -160 33 -205 25z"/>
</g>
</svg>
