<?xml version="1.0" encoding="utf-8"?>
<svg xmlns="http://www.w3.org/2000/svg" viewBox="0 0 500 500">
  <text style="font-family: Arial, sans-serif; font-size: 90px; white-space: pre;" x="97.665" y="467.635">Classic</text>
  <g transform="matrix(0.106153, 0, 0, -0.106153, 37.364796, 436.218781)" fill="#000000" stroke="none" style="">
    <path d="M1164 3651 c-406 -6 -433 -7 -453 -25 -30 -27 -28 -80 4 -111 l24 -25 1261 0 c1380 0 1299 -4 1315 57 8 32 -9 74 -35 91 -23 14 -1421 23 -2116 13z"/>
    <path d="M787 3379 c-100 -24 -220 -116 -271 -209 -115 -211 -22 -482 202 -592 62 -31 74 -33 167 -33 91 0 106 3 166 31 164 78 255 233 233 393 l-9 69 44 6 c58 8 1301 8 1367 0 l52 -7 -10 -36 c-6 -20 -8 -67 -6 -106 9 -135 95 -256 225 -318 62 -29 76 -32 168 -32 92 0 106 3 168 32 75 36 164 114 201 177 76 131 74 312 -5 438 -37 57 -104 120 -158 147 -102 52 -66 51 -1326 50 -643 -1 -1187 -5 -1208 -10z m212 -198 c161 -83 173 -310 23 -416 -37 -25 -55 -30 -116 -33 -81 -4 -121 8 -175 54 -73 62 -102 191 -62 279 21 48 96 117 143 133 45 15 140 6 187 -17z m2229 0 c50 -26 105 -89 120 -140 48 -159 -65 -311 -232 -311 -234 0 -326 305 -132 436 70 48 168 54 244 15z"/>
    <path d="M800 3084 c-87 -74 -77 -197 20 -246 66 -34 133 -18 184 42 31 37 36 112 11 161 -37 71 -154 94 -215 43z"/>
    <path d="M3028 3080 c-107 -88 -49 -260 87 -260 110 0 180 105 137 204 -26 59 -70 86 -137 86 -41 0 -57 -5 -87 -30z"/>
    <path d="M1427 2929 c-3 -8 -9 -45 -15 -83 -15 -96 -63 -189 -134 -258 l-58 -58 0 -912 c1 -502 5 -932 9 -955 18 -95 135 -122 190 -44 20 27 20 51 23 924 l3 896 29 30 c54 56 139 50 177 -13 18 -30 19 -68 19 -914 0 -984 -4 -923 68 -958 40 -19 76 -12 117 20 l30 24 5 914 c3 502 7 914 8 915 19 20 82 53 100 53 37 0 86 -28 105 -59 16 -27 17 -98 17 -918 0 -986 -5 -920 66 -949 46 -19 89 -8 124 33 l30 34 0 890 c0 871 0 892 20 919 42 59 124 64 176 9 l29 -30 5 -903 c5 -993 1 -925 67 -952 45 -19 88 -7 123 33 l30 34 0 940 0 940 -53 49 c-80 73 -147 215 -147 312 l0 38 -482 0 c-266 0 -527 3 -580 7 -79 5 -98 3 -101 -8z"/>
    <path d="M1536 2349 c-8 -80 -8 -1553 1 -1641 4 -47 10 -68 19 -68 12 0 14 147 14 885 0 739 -2 885 -14 885 -9 0 -15 -20 -20 -61z"/>
    <path d="M1987 2273 c-9 -176 -9 -1305 0 -1490 5 -110 9 -143 20 -143 11 0 13 151 13 885 0 735 -2 885 -13 885 -11 0 -15 -32 -20 -137z"/>
    <path d="M2435 2398 c-3 -7 -4 -404 -3 -883 3 -766 5 -870 18 -870 13 0 15 106 18 883 2 788 0 882 -13 882 -9 0 -18 -6 -20 -12z"/>
  </g>
</svg>