<?xml version="1.0" encoding="utf-8"?>
<svg xmlns="http://www.w3.org/2000/svg" viewBox="0 0 500 500">
  <g transform="matrix(0.131464, 0, 0, -0.131464, -16.961485, 459.911621)" fill="#000000" stroke="none" style="">
    <path d="M1913 3376 c-24 -8 -65 -28 -92 -46 -222 -142 -252 -441 -64 -629 34 -33 78 -65 105 -77 27 -10 48 -22 48 -25 0 -4 -23 -9 -50 -13 -119 -16 -288 -87 -407 -172 -184 -131 -327 -341 -389 -569 -22 -82 -30 -314 -14 -413 69 -430 420 -765 860 -822 234 -30 485 29 674 160 229 158 382 400 426 672 20 121 8 322 -24 431 -66 221 -207 421 -387 550 -118 84 -230 129 -423 172 -28 6 -27 6 25 32 67 34 149 114 182 179 104 205 20 448 -191 551 -46 23 -71 28 -146 30 -58 2 -107 -2 -133 -11z m244 -129 c167 -85 209 -302 87 -446 -32 -39 -113 -93 -125 -85 -5 3 -9 21 -9 41 0 30 8 44 44 79 109 104 51 187 -129 186 -117 0 -175 -28 -175 -85 0 -37 29 -85 69 -115 27 -19 31 -29 31 -67 l0 -44 -30 10 c-47 17 -117 86 -146 145 -79 162 13 358 191 405 52 14 138 3 192 -24z m98 -852 c139 -41 245 -104 351 -210 117 -116 197 -264 230 -426 20 -99 15 -279 -11 -374 -23 -85 -97 -229 -155 -302 -107 -134 -278 -241 -450 -284 -119 -30 -309 -23 -423 15 -363 122 -581 420 -579 791 1 289 147 544 400 702 80 50 208 98 299 113 92 14 239 3 338 -25z"/>
    <path d="M1962 2238 l3 -103 28 -3 28 -3 -3 103 -3 103 -28 3 -28 3 3 -103z"/>
    <path d="M2049 2328 c-1 -2 -3 -45 -4 -95 -2 -83 0 -93 16 -98 33 -11 39 4 39 101 0 94 0 94 -25 94 -14 0 -26 -1 -26 -2z"/>
    <path d="M1631 2236 c-9 -11 -1 -31 40 -95 44 -69 54 -79 70 -71 10 6 20 14 23 19 8 13 -91 161 -108 161 -7 0 -19 -6 -25 -14z"/>
    <path d="M2347 2167 c-44 -76 -46 -83 -30 -94 9 -8 21 -12 26 -10 6 2 30 38 54 80 37 63 43 80 33 92 -22 26 -34 16 -83 -68z"/>
    <path d="M2374 1859 c-260 -155 -268 -159 -300 -149 -19 7 -47 9 -62 5 -23 -5 -46 8 -157 90 -72 52 -138 95 -147 95 -40 0 -12 -41 102 -155 84 -84 120 -127 120 -143 0 -31 26 -79 49 -92 11 -5 38 -10 60 -10 52 0 91 33 100 84 6 38 10 41 270 202 146 90 269 168 274 173 11 11 -7 46 -27 54 -9 4 -126 -60 -282 -154z"/>
    <path d="M1385 1980 c-9 -27 -6 -31 74 -78 78 -47 86 -49 95 -26 10 27 8 30 -64 78 -77 51 -96 56 -105 26z"/>
    <path d="M1280 1605 c0 -19 5 -35 10 -35 82 -4 184 0 192 8 5 5 8 20 6 33 -3 23 -6 24 -105 27 l-103 3 0 -36z"/>
    <path d="M2576 1622 c-4 -11 -4 -27 0 -36 6 -14 21 -16 108 -14 l101 3 0 30 0 30 -102 3 c-92 2 -102 1 -107 -16z"/>
    <path d="M1457 1301 c-82 -46 -80 -45 -72 -70 9 -30 35 -26 104 15 70 42 75 47 66 74 -9 27 -19 25 -98 -19z"/>
    <path d="M2512 1320 c-6 -11 -12 -21 -12 -24 0 -2 36 -24 81 -50 64 -38 83 -45 95 -35 28 23 14 44 -57 87 -40 23 -77 42 -83 42 -6 0 -17 -9 -24 -20z"/>
    <path d="M1671 1063 c-32 -57 -41 -81 -34 -92 18 -29 33 -17 83 64 44 72 47 81 32 93 -9 6 -21 12 -26 12 -6 0 -31 -35 -55 -77z"/>
    <path d="M2303 1133 c-7 -2 -13 -11 -13 -19 0 -17 90 -174 99 -174 4 0 16 6 27 14 18 14 18 16 1 43 -9 15 -32 54 -50 85 -31 56 -38 62 -64 51z"/>
    <path d="M2013 1073 c-9 -3 -13 -35 -13 -108 0 -96 1 -103 21 -108 44 -12 49 -1 49 108 0 85 -3 104 -16 109 -18 7 -23 7 -41 -1z"/>
  </g>
  <text style="font-family: Arial, sans-serif; font-size: 90px; white-space: pre;" x="97.665" y="467.635">Antique</text>
</svg>