<?xml version="1.0" standalone="no"?>
<!DOCTYPE svg PUBLIC "-//W3C//DTD SVG 20010904//EN"
 "http://www.w3.org/TR/2001/REC-SVG-20010904/DTD/svg10.dtd">
<svg version="1.0" xmlns="http://www.w3.org/2000/svg"
 width="400.000000pt" height="400.000000pt" viewBox="0 0 400.000000 400.000000"
 preserveAspectRatio="xMidYMid meet">

<g transform="translate(0.000000,400.000000) scale(0.100000,-0.100000)"
fill="#000000" stroke="none">
<path d="M980 3670 c-11 -11 -20 -28 -20 -38 0 -10 -7 -39 -16 -65 -23 -68
-85 -120 -172 -146 -73 -22 -86 -37 -71 -78 6 -15 22 -24 61 -32 107 -24 168
-82 199 -191 16 -57 26 -70 54 -70 31 0 41 15 54 81 19 93 72 143 191 180 43
13 57 22 65 44 8 23 6 30 -14 46 -13 10 -33 19 -45 19 -31 1 -107 37 -139 68
-37 35 -54 69 -68 132 -6 30 -18 54 -29 60 -25 13 -27 13 -50 -10z m77 -262
l40 -43 -43 -41 -44 -40 -42 43 -42 43 40 38 c21 22 41 40 44 41 3 0 24 -18
47 -41z"/>
<path d="M3156 3387 c-9 -7 -23 -39 -31 -72 -19 -72 -50 -107 -120 -132 -45
-17 -50 -22 -50 -48 0 -27 5 -32 43 -44 60 -18 107 -66 121 -121 20 -80 28
-92 58 -88 24 3 29 10 43 63 9 33 23 70 31 83 14 22 101 72 126 72 7 0 17 8
22 18 13 25 -12 62 -41 62 -54 0 -131 87 -143 161 -8 45 -33 65 -59 46z"/>
<path d="M1184 2908 c-39 -46 -95 -114 -125 -153 -30 -38 -127 -154 -216 -258
-117 -135 -160 -192 -156 -205 3 -9 20 -33 38 -52 17 -19 169 -197 337 -395
168 -198 398 -466 509 -596 112 -129 222 -257 244 -285 87 -108 170 -195 193
-201 35 -8 20 -23 432 457 878 1026 900 1052 900 1079 0 17 -20 51 -58 97 -47
59 -378 448 -474 558 l-26 31 -764 3 -763 2 -71 -82z m677 -80 c-39 -63 -296
-417 -302 -418 -4 0 -39 95 -79 211 -39 117 -74 218 -77 225 -4 12 37 14 237
14 l242 0 -21 -32z m776 10 c-14 -54 -153 -418 -160 -418 -11 0 -317 418 -317
434 0 3 109 6 241 6 l241 0 -5 -22z m-1272 -246 c43 -122 74 -226 70 -230 -10
-10 -324 -14 -442 -5 l-102 8 192 231 c106 127 195 228 198 225 3 -3 41 -106
84 -229z m797 41 c78 -108 154 -212 168 -231 20 -28 22 -35 10 -42 -17 -11
-602 -12 -638 -2 -21 7 -17 14 69 132 50 69 125 173 167 233 41 59 76 107 78
107 1 0 67 -89 146 -197z m804 -53 l178 -215 -85 -7 c-46 -3 -168 -6 -271 -7
-158 -1 -188 1 -188 13 0 16 78 240 130 375 26 68 35 81 45 70 7 -8 92 -111
191 -229z m-1390 -600 c157 -457 295 -873 292 -880 -2 -5 -75 76 -164 179
-239 278 -789 924 -798 939 -6 10 54 12 289 10 l297 -3 84 -245z m713 -132
c-72 -211 -160 -473 -196 -583 -36 -110 -68 -203 -72 -207 -4 -5 -95 254 -201
573 -107 320 -196 585 -198 590 -2 5 172 9 397 9 l400 0 -130 -382z m840 365
c-62 -80 -968 -1143 -974 -1143 -6 0 36 127 182 555 77 226 155 454 172 508
l33 97 300 0 c285 0 300 -1 287 -17z"/>
<path d="M3026 1348 c-9 -12 -16 -33 -16 -46 0 -54 -67 -139 -139 -177 -16 -8
-48 -17 -71 -21 -29 -5 -44 -13 -49 -28 -14 -35 -1 -55 43 -67 115 -31 183
-89 206 -176 22 -87 27 -95 62 -91 29 3 33 7 49 60 33 111 87 165 194 193 71
18 75 21 75 54 0 34 -13 46 -60 56 -110 23 -194 104 -214 204 -12 63 -51 81
-80 39z m80 -250 l44 -42 -46 -47 -46 -47 -40 44 -40 43 37 46 c21 25 40 45
42 45 3 0 25 -19 49 -42z"/>
</g>
</svg>
