<?xml version="1.0" encoding="utf-8"?>
<svg xmlns="http://www.w3.org/2000/svg" viewBox="0 0 500 500">
  <text style="font-family: Arial, sans-serif; font-size: 90px; white-space: pre;" x="62.43" y="467.635">Millennial</text>
  <g transform="matrix(0.142068, 0, 0, -0.142068, -33.510578, 503.746948)" fill="#000000" stroke="none" style="">
    <path d="M1003 3064 c-18 -9 -40 -28 -50 -43 -17 -24 -18 -81 -21 -976 -2 -522 0 -974 3 -1003 5 -39 14 -62 35 -85 l28 -32 996 0 996 0 32 33 33 32 3 902 2 902 -143 143 -143 143 -869 0 c-772 0 -874 -2 -902 -16z m1507 -340 l0 -326 -34 -34 c-28 -28 -41 -34 -78 -34 -726 -3 -950 0 -977 14 -58 30 -61 52 -61 395 l0 311 575 0 575 0 0 -326z m221 -783 l24 -19 0 -469 0 -468 -750 0 -750 0 -3 467 c-2 457 -2 468 18 488 20 20 32 20 729 20 683 0 710 -1 732 -19z"/>
    <path d="M2080 2948 c0 -2 -1 -119 -3 -260 l-2 -257 128 -3 127 -3 0 263 0 262 -125 0 c-69 0 -125 -1 -125 -2z"/>
    <path d="M1420 1758 l0 -28 585 0 585 0 0 28 0 27 -585 0 -585 0 0 -27z"/>
    <path d="M1420 1535 l0 -25 585 0 585 0 0 25 0 25 -585 0 -585 0 0 -25z"/>
    <path d="M1420 1310 l0 -25 585 3 c574 2 585 3 585 22 0 19 -11 20 -585 22 l-585 3 0 -25z"/>
  </g>
</svg>