<?xml version="1.0" encoding="utf-8"?>
<svg xmlns="http://www.w3.org/2000/svg" viewBox="0 0 500 500">
  <text style="font-family: Arial, sans-serif; font-size: 90px; white-space: pre;" x="97.43" y="467.635">Modern</text>
  <g transform="matrix(0.137018, 0, 0, -0.137018, -26.767561, 482.960938)" fill="#000000" stroke="none" style="">
    <path d="M1425 3406 c-61 -29 -107 -76 -134 -137 -20 -46 -21 -62 -21 -1148 -1 -844 2 -1110 11 -1142 18 -57 87 -132 149 -158 50 -21 55 -22 603 -19 l552 3 47 27 c25 16 60 45 78 65 62 76 60 30 60 1223 0 1229 5 1146 -80 1230 -81 81 -68 80 -679 80 l-536 0 -50 -24z m1193 -1213 l-3 -938 -594 -3 c-469 -2 -596 0 -603 10 -9 16 -11 1852 -1 1861 3 4 276 7 605 7 l598 0 -2 -937z m-547 -1063 c23 -13 49 -61 49 -92 0 -13 -9 -37 -19 -54 -48 -78 -170 -57 -187 32 -8 42 2 71 34 101 27 25 88 31 123 13z"/>
  </g>
</svg>