<?xml version="1.0" encoding="utf-8"?>
<svg xmlns="http://www.w3.org/2000/svg" viewBox="0 0 500 500">
  <text style="font-family: Arial, sans-serif; font-size: 90px; white-space: pre;" x="111.621" y="467.635">Trendy</text>
  <g transform="matrix(0.126416, 0, 0, -0.126416, -0.995085, 511.241547)" fill="#000000" stroke="none" style="">
    <path d="M852 2504 c-138 -19 -280 -50 -308 -69 -29 -18 -38 -61 -29 -136 6 -52 11 -63 41 -86 38 -29 55 -76 74 -206 27 -187 79 -306 171 -391 104 -97 233 -132 458 -124 111 4 149 9 207 30 180 63 287 189 358 418 45 143 59 173 95 197 51 34 111 31 155 -7 29 -26 40 -50 71 -148 52 -166 95 -251 167 -327 108 -116 244 -165 459 -165 146 0 215 13 306 56 85 40 147 100 190 180 40 75 58 138 83 294 25 150 32 171 70 193 34 20 43 53 38 141 -2 49 -7 62 -28 77 -58 44 -368 89 -603 89 -241 0 -408 -29 -588 -101 -182 -73 -307 -73 -499 -1 -129 48 -216 70 -340 87 -132 18 -411 18 -548 -1z"/>
  </g>
</svg>